<svg width="151" height="35" viewBox="0 0 151 35" fill="none" xmlns="http://www.w3.org/2000/svg">
<path d="M45.912 26.264C44.088 26.264 42.528 25.904 41.232 25.184C39.936 24.464 38.936 23.456 38.232 22.16C37.544 20.848 37.2 19.304 37.2 17.528C37.2 16.2 37.392 15.008 37.776 13.952C38.176 12.88 38.752 11.968 39.504 11.216C40.256 10.448 41.168 9.856 42.24 9.44C43.328 9.024 44.552 8.816 45.912 8.816C46.712 8.816 47.52 8.92 48.336 9.128C49.168 9.32 49.888 9.6 50.496 9.968C50.896 10.192 51.168 10.472 51.312 10.808C51.456 11.144 51.496 11.48 51.432 11.816C51.384 12.152 51.248 12.44 51.024 12.68C50.816 12.92 50.552 13.072 50.232 13.136C49.912 13.2 49.552 13.128 49.152 12.92C48.672 12.632 48.168 12.424 47.64 12.296C47.112 12.168 46.576 12.104 46.032 12.104C44.96 12.104 44.056 12.32 43.32 12.752C42.6 13.168 42.056 13.776 41.688 14.576C41.32 15.376 41.136 16.36 41.136 17.528C41.136 18.68 41.32 19.664 41.688 20.48C42.056 21.296 42.6 21.92 43.32 22.352C44.056 22.768 44.96 22.976 46.032 22.976C46.544 22.976 47.064 22.912 47.592 22.784C48.136 22.656 48.656 22.456 49.152 22.184C49.568 21.976 49.936 21.904 50.256 21.968C50.592 22.016 50.864 22.16 51.072 22.4C51.296 22.624 51.432 22.896 51.48 23.216C51.544 23.536 51.512 23.856 51.384 24.176C51.256 24.496 51.016 24.768 50.664 24.992C50.072 25.392 49.344 25.704 48.48 25.928C47.616 26.152 46.76 26.264 45.912 26.264ZM58.6185 26.264C57.3545 26.264 56.2505 26.016 55.3065 25.52C54.3785 25.024 53.6585 24.312 53.1465 23.384C52.6345 22.456 52.3785 21.36 52.3785 20.096C52.3785 19.152 52.5225 18.304 52.8105 17.552C53.0985 16.8 53.5145 16.16 54.0585 15.632C54.6185 15.088 55.2825 14.68 56.0505 14.408C56.8185 14.12 57.6745 13.976 58.6185 13.976C59.8825 13.976 60.9785 14.224 61.9065 14.72C62.8505 15.216 63.5785 15.92 64.0905 16.832C64.6185 17.744 64.8825 18.832 64.8825 20.096C64.8825 21.056 64.7305 21.912 64.4265 22.664C64.1385 23.416 63.7225 24.064 63.1785 24.608C62.6345 25.152 61.9705 25.568 61.1865 25.856C60.4185 26.128 59.5625 26.264 58.6185 26.264ZM58.6185 23.552C59.1465 23.552 59.6025 23.424 59.9865 23.168C60.3705 22.912 60.6745 22.536 60.8985 22.04C61.1225 21.528 61.2345 20.88 61.2345 20.096C61.2345 18.928 60.9945 18.072 60.5145 17.528C60.0345 16.968 59.4025 16.688 58.6185 16.688C58.1065 16.688 57.6505 16.808 57.2505 17.048C56.8665 17.288 56.5625 17.664 56.3385 18.176C56.1305 18.672 56.0265 19.312 56.0265 20.096C56.0265 21.264 56.2665 22.136 56.7465 22.712C57.2265 23.272 57.8505 23.552 58.6185 23.552ZM71.3353 26.264C69.9113 26.264 68.8473 25.872 68.1433 25.088C67.4393 24.288 67.0873 23.104 67.0873 21.536V10.712C67.0873 10.104 67.2393 9.648 67.5433 9.344C67.8633 9.024 68.3193 8.864 68.9113 8.864C69.4873 8.864 69.9273 9.024 70.2313 9.344C70.5513 9.648 70.7113 10.104 70.7113 10.712V21.392C70.7113 22.048 70.8473 22.536 71.1193 22.856C71.4073 23.16 71.7833 23.312 72.2473 23.312C72.3753 23.312 72.4953 23.304 72.6073 23.288C72.7193 23.272 72.8393 23.264 72.9673 23.264C73.2233 23.232 73.3993 23.312 73.4953 23.504C73.6073 23.68 73.6633 24.04 73.6633 24.584C73.6633 25.064 73.5673 25.432 73.3753 25.688C73.1833 25.928 72.8873 26.088 72.4873 26.168C72.3273 26.184 72.1433 26.2 71.9353 26.216C71.7273 26.248 71.5273 26.264 71.3353 26.264ZM76.9515 26.216C76.3595 26.216 75.9035 26.056 75.5835 25.736C75.2795 25.416 75.1275 24.96 75.1275 24.368V15.848C75.1275 15.256 75.2795 14.808 75.5835 14.504C75.9035 14.184 76.3435 14.024 76.9035 14.024C77.4795 14.024 77.9195 14.184 78.2235 14.504C78.5275 14.808 78.6795 15.256 78.6795 15.848V17.384L78.4155 16.424C78.7355 15.688 79.2315 15.096 79.9035 14.648C80.5755 14.2 81.3675 13.976 82.2795 13.976C83.1915 13.976 83.9515 14.192 84.5595 14.624C85.1675 15.056 85.5995 15.72 85.8555 16.616H85.5195C85.8715 15.8 86.4075 15.16 87.1275 14.696C87.8635 14.216 88.7035 13.976 89.6475 13.976C90.5595 13.976 91.3035 14.16 91.8795 14.528C92.4715 14.88 92.9115 15.424 93.1995 16.16C93.4875 16.88 93.6315 17.8 93.6315 18.92V24.368C93.6315 24.96 93.4715 25.416 93.1515 25.736C92.8475 26.056 92.4075 26.216 91.8315 26.216C91.2395 26.216 90.7835 26.056 90.4635 25.736C90.1595 25.416 90.0075 24.96 90.0075 24.368V19.04C90.0075 18.256 89.8795 17.688 89.6235 17.336C89.3835 16.968 88.9675 16.784 88.3755 16.784C87.6875 16.784 87.1515 17.024 86.7675 17.504C86.3835 17.984 86.1915 18.664 86.1915 19.544V24.368C86.1915 24.96 86.0315 25.416 85.7115 25.736C85.4075 26.056 84.9675 26.216 84.3915 26.216C83.8155 26.216 83.3675 26.056 83.0475 25.736C82.7275 25.416 82.5675 24.96 82.5675 24.368V19.04C82.5675 18.256 82.4395 17.688 82.1835 17.336C81.9435 16.968 81.5275 16.784 80.9355 16.784C80.2475 16.784 79.7115 17.024 79.3275 17.504C78.9435 17.984 78.7515 18.664 78.7515 19.544V24.368C78.7515 25.6 78.1515 26.216 76.9515 26.216ZM100.392 26.264C99.5276 26.264 98.7516 26.096 98.0636 25.76C97.3756 25.424 96.8396 24.968 96.4556 24.392C96.0716 23.816 95.8796 23.168 95.8796 22.448C95.8796 21.584 96.1036 20.904 96.5516 20.408C96.9996 19.896 97.7276 19.536 98.7356 19.328C99.7436 19.104 101.08 18.992 102.744 18.992H104.016V20.864H102.768C101.952 20.864 101.288 20.912 100.776 21.008C100.28 21.088 99.9196 21.232 99.6956 21.44C99.4876 21.648 99.3836 21.936 99.3836 22.304C99.3836 22.752 99.5356 23.12 99.8396 23.408C100.16 23.696 100.616 23.84 101.208 23.84C101.672 23.84 102.08 23.736 102.432 23.528C102.8 23.304 103.088 23.008 103.296 22.64C103.504 22.256 103.608 21.824 103.608 21.344V18.584C103.608 17.88 103.448 17.384 103.128 17.096C102.808 16.792 102.264 16.64 101.496 16.64C101.064 16.64 100.592 16.696 100.08 16.808C99.5836 16.904 99.0316 17.072 98.4236 17.312C98.0716 17.472 97.7596 17.512 97.4876 17.432C97.2156 17.336 97.0076 17.176 96.8636 16.952C96.7196 16.712 96.6476 16.456 96.6476 16.184C96.6476 15.896 96.7276 15.624 96.8876 15.368C97.0476 15.096 97.3116 14.896 97.6796 14.768C98.4316 14.464 99.1356 14.256 99.7916 14.144C100.464 14.032 101.08 13.976 101.64 13.976C102.872 13.976 103.88 14.16 104.664 14.528C105.464 14.88 106.064 15.432 106.464 16.184C106.864 16.92 107.064 17.872 107.064 19.04V24.368C107.064 24.96 106.92 25.416 106.632 25.736C106.344 26.056 105.928 26.216 105.384 26.216C104.84 26.216 104.416 26.056 104.112 25.736C103.824 25.416 103.68 24.96 103.68 24.368V23.48L103.848 23.624C103.752 24.168 103.544 24.64 103.224 25.04C102.92 25.424 102.528 25.728 102.048 25.952C101.568 26.16 101.016 26.264 100.392 26.264ZM111.591 26.216C110.999 26.216 110.543 26.056 110.223 25.736C109.919 25.416 109.767 24.96 109.767 24.368V15.848C109.767 15.256 109.919 14.808 110.223 14.504C110.543 14.184 110.983 14.024 111.543 14.024C112.119 14.024 112.559 14.184 112.863 14.504C113.167 14.808 113.319 15.256 113.319 15.848V17.216L113.055 16.424C113.423 15.64 113.967 15.04 114.687 14.624C115.423 14.192 116.255 13.976 117.183 13.976C118.127 13.976 118.903 14.16 119.511 14.528C120.119 14.88 120.575 15.424 120.879 16.16C121.183 16.88 121.335 17.8 121.335 18.92V24.368C121.335 24.96 121.175 25.416 120.855 25.736C120.551 26.056 120.103 26.216 119.511 26.216C118.935 26.216 118.487 26.056 118.167 25.736C117.863 25.416 117.711 24.96 117.711 24.368V19.088C117.711 18.272 117.559 17.688 117.255 17.336C116.967 16.968 116.519 16.784 115.911 16.784C115.143 16.784 114.527 17.024 114.063 17.504C113.615 17.984 113.391 18.624 113.391 19.424V24.368C113.391 25.6 112.791 26.216 111.591 26.216ZM128.024 26.264C127.16 26.264 126.384 26.096 125.696 25.76C125.008 25.424 124.472 24.968 124.088 24.392C123.704 23.816 123.512 23.168 123.512 22.448C123.512 21.584 123.736 20.904 124.184 20.408C124.632 19.896 125.36 19.536 126.368 19.328C127.376 19.104 128.712 18.992 130.376 18.992H131.648V20.864H130.4C129.584 20.864 128.92 20.912 128.408 21.008C127.912 21.088 127.552 21.232 127.328 21.44C127.12 21.648 127.016 21.936 127.016 22.304C127.016 22.752 127.168 23.12 127.472 23.408C127.792 23.696 128.248 23.84 128.84 23.84C129.304 23.84 129.712 23.736 130.064 23.528C130.432 23.304 130.72 23.008 130.928 22.64C131.136 22.256 131.24 21.824 131.24 21.344V18.584C131.24 17.88 131.08 17.384 130.76 17.096C130.44 16.792 129.896 16.64 129.128 16.64C128.696 16.64 128.224 16.696 127.712 16.808C127.216 16.904 126.664 17.072 126.056 17.312C125.704 17.472 125.392 17.512 125.12 17.432C124.848 17.336 124.64 17.176 124.496 16.952C124.352 16.712 124.28 16.456 124.28 16.184C124.28 15.896 124.36 15.624 124.52 15.368C124.68 15.096 124.944 14.896 125.312 14.768C126.064 14.464 126.768 14.256 127.424 14.144C128.096 14.032 128.712 13.976 129.272 13.976C130.504 13.976 131.512 14.16 132.296 14.528C133.096 14.88 133.696 15.432 134.096 16.184C134.496 16.92 134.696 17.872 134.696 19.04V24.368C134.696 24.96 134.552 25.416 134.264 25.736C133.976 26.056 133.56 26.216 133.016 26.216C132.472 26.216 132.048 26.056 131.744 25.736C131.456 25.416 131.312 24.96 131.312 24.368V23.48L131.48 23.624C131.384 24.168 131.176 24.64 130.856 25.04C130.552 25.424 130.16 25.728 129.68 25.952C129.2 26.16 128.648 26.264 128.024 26.264ZM143.064 30.584C142.2 30.584 141.368 30.512 140.568 30.368C139.784 30.224 139.088 30.008 138.48 29.72C138.112 29.56 137.848 29.352 137.688 29.096C137.544 28.84 137.48 28.568 137.496 28.28C137.528 27.992 137.624 27.736 137.784 27.512C137.96 27.288 138.176 27.128 138.432 27.032C138.688 26.952 138.96 26.976 139.248 27.104C139.952 27.424 140.6 27.632 141.192 27.728C141.8 27.824 142.32 27.872 142.752 27.872C143.776 27.872 144.544 27.64 145.056 27.176C145.568 26.712 145.824 26 145.824 25.04V23.216H146.04C145.8 23.952 145.304 24.552 144.552 25.016C143.8 25.48 142.968 25.712 142.056 25.712C141 25.712 140.08 25.472 139.296 24.992C138.512 24.496 137.904 23.808 137.472 22.928C137.04 22.032 136.824 21 136.824 19.832C136.824 18.952 136.944 18.152 137.184 17.432C137.44 16.712 137.792 16.096 138.24 15.584C138.704 15.072 139.256 14.68 139.896 14.408C140.552 14.12 141.272 13.976 142.056 13.976C143 13.976 143.832 14.208 144.552 14.672C145.288 15.12 145.776 15.712 146.016 16.448L145.776 17.216V15.848C145.776 15.256 145.928 14.808 146.232 14.504C146.552 14.184 147 14.024 147.576 14.024C148.152 14.024 148.592 14.184 148.896 14.504C149.2 14.808 149.352 15.256 149.352 15.848V24.632C149.352 26.6 148.808 28.08 147.72 29.072C146.648 30.08 145.096 30.584 143.064 30.584ZM143.136 23C143.68 23 144.144 22.872 144.528 22.616C144.928 22.36 145.24 22 145.464 21.536C145.688 21.056 145.8 20.488 145.8 19.832C145.8 18.84 145.552 18.072 145.056 17.528C144.576 16.968 143.936 16.688 143.136 16.688C142.592 16.688 142.12 16.816 141.72 17.072C141.32 17.312 141.008 17.672 140.784 18.152C140.576 18.616 140.472 19.176 140.472 19.832C140.472 20.824 140.712 21.6 141.192 22.16C141.672 22.72 142.32 23 143.136 23Z" fill="#111111"/>
<path d="M26.8125 18.6615L16.5 28.875L6.18755 18.6615M6.18755 18.6615C5.50734 17.9996 4.97156 17.204 4.61393 16.3249C4.2563 15.4457 4.08457 14.5021 4.10956 13.5533C4.13455 12.6045 4.35572 11.6712 4.75914 10.8121C5.16256 9.95299 5.73948 9.18672 6.45359 8.56155C7.1677 7.93637 8.00352 7.46582 8.90841 7.17954C9.81331 6.89325 10.7677 6.79743 11.7114 6.8981C12.6552 6.99877 13.5679 7.29376 14.392 7.7645C15.2161 8.23523 15.9339 8.8715 16.5 9.63325C17.0687 8.87703 17.7872 8.24631 18.6108 7.78058C19.4344 7.31485 20.3452 7.02412 21.2863 6.92659C22.2274 6.82906 23.1785 6.92683 24.0801 7.21379C24.9817 7.50074 25.8143 7.9707 26.5259 8.59425C27.2375 9.2178 27.8128 9.98151 28.2156 10.8376C28.6185 11.6937 28.8403 12.6237 28.8672 13.5695C28.8941 14.5152 28.7255 15.4564 28.372 16.334C28.0184 17.2116 27.4875 18.0068 26.8125 18.6697" stroke="#E53E3E" stroke-width="5" stroke-linecap="round" stroke-linejoin="round"/>
</svg>
